<svg xmlns="http://www.w3.org/2000/svg" width="1200" height="900" viewBox="0 0 1200 900" role="img" aria-label="Abstract bird illustration">
  <defs>
    <linearGradient id="bg" x1="0" y1="0" x2="0" y2="1">
      <stop offset="0" stop-color="#d7f5ee"/>
      <stop offset="0.55" stop-color="#f5f1cf"/>
      <stop offset="1" stop-color="#f2e6b8"/>
    </linearGradient>
    <linearGradient id="hill" x1="0" y1="0" x2="1" y2="1">
      <stop offset="0" stop-color="#2f7f52"/>
      <stop offset="1" stop-color="#184f31"/>
    </linearGradient>
    <filter id="shadow" x="-20%" y="-20%" width="140%" height="140%">
      <feDropShadow dx="0" dy="10" stdDeviation="14" flood-color="#0e220e" flood-opacity="0.18"/>
    </filter>
  </defs>

  <rect width="1200" height="900" fill="url(#bg)"/>

  <path d="M0 520 C210 430 360 450 520 510 C680 570 820 540 980 480 C1090 438 1160 440 1200 452 L1200 900 L0 900 Z" fill="url(#hill)" opacity="0.95"/>
  <path d="M0 640 C220 580 400 600 560 645 C700 685 900 660 1040 620 C1120 596 1170 596 1200 606 L1200 900 L0 900 Z" fill="#15462c"/>

  <!-- Stylized bird -->
  <g filter="url(#shadow)" transform="translate(290 180)">
    <path d="M310 255 C260 190 270 115 330 78 C408 30 522 74 544 160 C560 222 520 272 468 302 C420 330 352 326 310 255 Z" fill="#e9d9b1"/>
    <path d="M348 260 C316 218 322 168 356 140 C402 102 480 126 496 178 C508 216 486 248 456 266 C420 286 374 284 348 260 Z" fill="#d0b98f"/>
    <path d="M468 210 C512 210 548 194 576 170 C592 156 602 146 616 138 C630 130 648 130 664 140 C632 168 614 196 602 220 C580 268 540 300 484 314 Z" fill="#f0c84a"/>
    <path d="M388 318 C372 356 382 394 412 420 C442 446 486 452 522 438 C476 418 456 386 460 346 C430 346 408 336 388 318 Z" fill="#2b6f46"/>
    <path d="M332 320 C296 374 300 432 346 472 C392 512 464 522 528 494 C452 492 412 462 394 420 C364 402 346 370 332 320 Z" fill="#214f35" opacity="0.9"/>
    <circle cx="420" cy="196" r="10" fill="#0e220e"/>
    <path d="M400 154 C420 138 450 136 468 152" fill="none" stroke="#0e220e" stroke-opacity="0.65" stroke-width="6" stroke-linecap="round"/>
    <path d="M510 238 C526 230 544 230 560 238" fill="none" stroke="#0e220e" stroke-opacity="0.45" stroke-width="5" stroke-linecap="round"/>
  </g>
</svg>
